solid ascii
  facet normal 8.381156e-01 4.190597e-01 3.123472e-01
    outer loop
      vertex   1.024575e-01 2.325000e+01 9.250000e+00
      vertex   1.500000e+00 2.325000e+01 5.500000e+00
      vertex   1.942890e-15 2.345491e+01 9.250000e+00
    endloop
  endfacet
  facet normal 5.947849e-01 2.973925e-01 2.216633e-01
    outer loop
      vertex   1.942890e-15 2.345491e+01 9.250000e+00
      vertex   1.500000e+00 2.325000e+01 5.500000e+00
      vertex   2.462717e-15 2.625000e+01 5.500000e+00
    endloop
  endfacet
  facet normal -7.171371e-01 3.585685e-01 2.672613e-01
    outer loop
      vertex   2.462717e-15 2.625000e+01 5.500000e+00
      vertex   -1.500000e+00 2.325000e+01 5.500000e+00
      vertex   1.942890e-15 2.345491e+01 9.250000e+00
    endloop
  endfacet
  facet normal -8.293872e-01 4.146955e-01 3.090944e-01
    outer loop
      vertex   1.942890e-15 2.345491e+01 9.250000e+00
      vertex   -1.500000e+00 2.325000e+01 5.500000e+00
      vertex   -1.024575e-01 2.325000e+01 9.250000e+00
    endloop
  endfacet
  facet normal 0.000000e+00 0.000000e+00 8.000022e-01
    outer loop
      vertex   1.942890e-15 2.345491e+01 9.250000e+00
      vertex   -1.024575e-01 2.325000e+01 9.250000e+00
      vertex   1.024575e-01 2.325000e+01 9.250000e+00
    endloop
  endfacet
  facet normal 0.000000e+00 -3.492151e-01 0.000000e+00
    outer loop
      vertex   -1.500000e+00 2.325000e+01 5.500000e+00
      vertex   -1.500000e+00 2.325000e+01 4.000000e+00
      vertex   -1.024575e-01 2.325000e+01 9.250000e+00
    endloop
  endfacet
  facet normal 0.000000e+00 -2.572403e-01 -0.000000e+00
    outer loop
      vertex   -1.024575e-01 2.325000e+01 9.250000e+00
      vertex   -1.500000e+00 2.325000e+01 4.000000e+00
      vertex   -1.024575e-01 2.325000e+01 2.500000e-01
    endloop
  endfacet
  facet normal 0.000000e+00 -1.000000e+00 0.000000e+00
    outer loop
      vertex   -1.024575e-01 2.325000e+01 9.250000e+00
      vertex   -1.024575e-01 2.325000e+01 2.500000e-01
      vertex   1.024575e-01 2.325000e+01 9.250000e+00
    endloop
  endfacet
  facet normal 0.000000e+00 -2.276244e-02 -0.000000e+00
    outer loop
      vertex   1.024575e-01 2.325000e+01 9.250000e+00
      vertex   -1.024575e-01 2.325000e+01 2.500000e-01
      vertex   1.024575e-01 2.325000e+01 2.500000e-01
    endloop
  endfacet
  facet normal 0.000000e+00 -3.492151e-01 0.000000e+00
    outer loop
      vertex   1.024575e-01 2.325000e+01 9.250000e+00
      vertex   1.024575e-01 2.325000e+01 2.500000e-01
      vertex   1.500000e+00 2.325000e+01 5.500000e+00
    endloop
  endfacet
  facet normal 0.000000e+00 -2.572403e-01 -0.000000e+00
    outer loop
      vertex   1.500000e+00 2.325000e+01 5.500000e+00
      vertex   1.024575e-01 2.325000e+01 2.500000e-01
      vertex   1.500000e+00 2.325000e+01 4.000000e+00
    endloop
  endfacet
  facet normal -8.381156e-01 4.190597e-01 -3.123472e-01
    outer loop
      vertex   -1.024575e-01 2.325000e+01 2.500000e-01
      vertex   -1.500000e+00 2.325000e+01 4.000000e+00
      vertex   1.431693e-15 2.345491e+01 2.500000e-01
    endloop
  endfacet
  facet normal -5.947849e-01 2.973925e-01 -2.216633e-01
    outer loop
      vertex   1.431693e-15 2.345491e+01 2.500000e-01
      vertex   -1.500000e+00 2.325000e+01 4.000000e+00
      vertex   2.646414e-15 2.625000e+01 4.000000e+00
    endloop
  endfacet
  facet normal 7.171371e-01 3.585685e-01 -2.672613e-01
    outer loop
      vertex   2.646414e-15 2.625000e+01 4.000000e+00
      vertex   1.500000e+00 2.325000e+01 4.000000e+00
      vertex   1.431693e-15 2.345491e+01 2.500000e-01
    endloop
  endfacet
  facet normal 8.293872e-01 4.146955e-01 -3.090944e-01
    outer loop
      vertex   1.431693e-15 2.345491e+01 2.500000e-01
      vertex   1.500000e+00 2.325000e+01 4.000000e+00
      vertex   1.024575e-01 2.325000e+01 2.500000e-01
    endloop
  endfacet
  facet normal 8.944272e-01 4.472136e-01 1.095357e-16
    outer loop
      vertex   2.646414e-15 2.625000e+01 4.000000e+00
      vertex   2.462717e-15 2.625000e+01 5.500000e+00
      vertex   1.500000e+00 2.325000e+01 4.000000e+00
    endloop
  endfacet
  facet normal 8.164966e-01 4.082483e-01 -0.000000e+00
    outer loop
      vertex   1.500000e+00 2.325000e+01 4.000000e+00
      vertex   2.462717e-15 2.625000e+01 5.500000e+00
      vertex   1.500000e+00 2.325000e+01 5.500000e+00
    endloop
  endfacet
  facet normal -8.944272e-01 4.472136e-01 0.000000e+00
    outer loop
      vertex   -1.500000e+00 2.325000e+01 4.000000e+00
      vertex   -1.500000e+00 2.325000e+01 5.500000e+00
      vertex   2.646414e-15 2.625000e+01 4.000000e+00
    endloop
  endfacet
  facet normal -8.164966e-01 4.082483e-01 -9.999192e-17
    outer loop
      vertex   2.646414e-15 2.625000e+01 4.000000e+00
      vertex   -1.500000e+00 2.325000e+01 5.500000e+00
      vertex   2.462717e-15 2.625000e+01 5.500000e+00
    endloop
  endfacet
  facet normal 0.000000e+00 -0.000000e+00 -8.000022e-01
    outer loop
      vertex   1.431693e-15 2.345491e+01 2.500000e-01
      vertex   1.024575e-01 2.325000e+01 2.500000e-01
      vertex   -1.024575e-01 2.325000e+01 2.500000e-01
    endloop
  endfacet
endsolid
